<?xml version="1.0" standalone="no"?>
<!DOCTYPE svg PUBLIC "-//W3C//DTD SVG 20010904//EN"
 "http://www.w3.org/TR/2001/REC-SVG-20010904/DTD/svg10.dtd">
<svg version="1.0" xmlns="http://www.w3.org/2000/svg"
 width="500.000000pt" height="499.000000pt" viewBox="0 0 500.000000 499.000000"
 preserveAspectRatio="xMidYMid meet">
<metadata>
Created by potrace 1.16, written by Peter Selinger 2001-2019
</metadata>
<g transform="translate(0.000000,499.000000) scale(0.100000,-0.100000)"
fill="#000000" stroke="none">
<path d="M2933 4405 c-215 -39 -398 -140 -500 -278 -43 -58 -109 -186 -138
-269 -13 -34 -8 -31 62 43 95 99 154 143 243 180 80 34 190 50 190 28 0 -8 16
-126 34 -264 l34 -250 56 -120 c49 -104 59 -120 78 -118 13 1 67 5 121 9 54 4
99 10 101 13 2 3 -14 134 -35 291 -20 156 -36 286 -34 288 6 6 57 -80 90 -153
51 -111 69 -202 70 -345 0 -69 -6 -156 -14 -195 -19 -94 -74 -251 -122 -346
-106 -211 -330 -400 -584 -492 -313 -113 -721 -342 -888 -497 l-52 -49 72 -1
c68 0 77 -3 140 -43 38 -23 107 -65 155 -92 47 -27 84 -54 81 -59 -4 -5 1 -7
10 -3 9 3 38 -3 64 -14 276 -120 456 -181 575 -195 62 -7 94 12 84 50 -23 84
-13 159 27 197 12 12 41 30 64 41 37 16 63 18 220 16 196 -3 240 4 294 49 l32
27 -6 107 c-6 106 -6 108 25 169 31 60 32 63 16 90 -16 29 -16 29 18 49 38 23
43 48 23 124 -15 63 -1 93 49 100 48 8 92 47 92 82 0 31 -32 95 -113 229 -32
55 -66 115 -74 135 -19 44 -12 102 19 174 19 44 23 68 22 154 -2 132 -24 225
-85 348 -56 114 -145 229 -239 312 -73 63 -75 66 -84 143 -7 54 -6 56 21 67
28 12 28 12 2 7 -31 -6 -32 -4 -49 126 -21 163 -16 150 -58 149 -20 0 -69 -7
-109 -14z m35 -322 c13 -98 35 -258 48 -357 14 -98 23 -185 20 -192 -4 -11
-46 -21 -46 -11 0 1 -12 88 -25 192 -14 105 -35 260 -45 345 -11 85 -22 165
-25 178 -5 19 -1 22 23 22 l27 0 23 -177z"/>
<path d="M1361 4250 c-55 -8 -71 -20 -71 -55 0 -11 -34 -258 -75 -549 -41
-291 -75 -529 -75 -530 0 -1 20 -1 45 -1 25 0 45 4 45 8 0 5 20 7 45 5 30 -3
52 0 66 10 31 22 295 10 404 -18 200 -51 342 -133 469 -271 l58 -62 -30 59
c-67 133 -194 262 -317 324 -63 32 -59 29 -52 36 8 8 165 -67 224 -107 26 -18
72 -58 102 -88 l54 -56 -29 54 c-16 30 -65 91 -109 136 -61 63 -97 91 -155
119 -99 48 -212 76 -334 83 l-98 6 5 51 c8 69 66 522 73 569 l6 37 96 0 c53 0
125 -7 161 -16 83 -20 254 -103 309 -150 66 -56 49 -22 -28 56 -38 38 -66 70
-61 70 9 0 88 -56 124 -89 56 -52 24 -2 -54 82 -133 143 -268 225 -441 267
-94 23 -276 33 -357 20z"/>
<path d="M2525 3262 c30 -68 55 -127 55 -130 0 -10 -149 -295 -160 -306 -4 -4
-34 45 -65 110 l-57 119 81 156 c57 111 76 156 65 156 -8 0 -13 -6 -10 -14 3
-8 2 -11 -3 -8 -6 3 -14 -3 -20 -12 -8 -14 -11 -15 -12 -3 -1 8 -1 18 -1 22 1
3 -5 8 -12 11 -10 4 -13 -1 -12 -17 2 -12 -2 -23 -8 -24 -6 -1 -25 -4 -42 -8
-20 -4 -36 -1 -45 8 -8 8 -21 12 -29 10 -13 -5 -13 -3 -1 11 8 10 9 17 3 17
-6 0 -14 -5 -17 -10 -5 -8 -11 -8 -19 -1 -26 22 -23 -3 10 -75 19 -41 34 -79
34 -85 0 -20 -19 -7 -39 26 -23 39 -56 47 -66 16 -4 -13 33 -103 110 -268 63
-136 119 -251 123 -255 9 -9 432 -98 466 -98 20 0 39 30 135 211 84 158 110
216 105 232 -10 33 -153 317 -160 317 -3 0 -2 -4 1 -10 3 -5 -3 -10 -14 -10
-12 0 -21 5 -21 11 0 8 -5 8 -15 -1 -8 -7 -23 -9 -32 -6 -17 6 -17 5 0 -8 11
-9 14 -17 8 -20 -6 -4 -32 -46 -57 -94 -26 -48 -48 -89 -50 -90 -1 -2 -27 1
-56 7 l-54 12 -49 99 c-43 87 -50 97 -62 82 -12 -16 -12 -15 -6 2 4 13 3 17
-4 13 -6 -4 -14 -1 -16 5 -4 9 -6 9 -6 -1 -1 -11 -5 -10 -16 5 -8 10 10 -36
40 -104z m432 -74 c22 -51 39 -94 38 -96 -6 -7 -165 32 -165 40 0 16 70 148
78 148 5 0 27 -42 49 -92z m-122 -138 c83 -17 155 -33 162 -35 7 -2 -16 -57
-64 -147 -108 -205 -92 -187 -155 -175 -29 5 -57 13 -61 17 -4 4 3 31 17 61
26 57 22 69 -20 69 -15 0 -27 -15 -48 -59 l-28 -58 -67 14 c-110 23 -104 17
-75 76 15 29 53 103 86 164 52 99 62 112 81 108 12 -3 90 -19 172 -35z"/>
<path d="M1807 3033 c-4 -3 -7 -19 -7 -34 0 -42 -42 -62 -81 -40 -27 15 -30
15 -49 -5 l-21 -20 21 -27 c30 -37 16 -78 -29 -91 -27 -8 -32 -13 -29 -35 2
-21 11 -28 40 -35 49 -12 64 -44 40 -86 -17 -30 -17 -31 8 -50 25 -19 25 -19
46 1 36 34 78 23 89 -24 9 -34 17 -39 50 -31 20 5 25 12 25 39 0 27 5 35 29
45 25 10 33 9 56 -6 27 -18 28 -17 46 5 18 23 18 24 -1 52 -30 41 -18 77 26
85 31 6 34 9 34 40 0 32 -2 34 -35 34 -28 0 -37 5 -49 28 -13 26 -13 31 4 57
18 28 18 28 -5 47 -24 19 -25 19 -53 -2 -38 -28 -77 -15 -87 29 -5 25 -12 31
-34 31 -15 0 -31 -3 -34 -7z m114 -172 c50 -50 35 -124 -30 -151 -39 -16 -76
-6 -107 27 -53 57 -9 153 71 153 27 0 44 -8 66 -29z"/>
<path d="M1546 2650 c-15 -37 -19 -40 -53 -40 -31 0 -43 6 -64 32 -25 30 -28
31 -58 18 -42 -17 -44 -23 -26 -66 15 -35 14 -38 -9 -68 -21 -28 -28 -31 -69
-28 -45 4 -46 4 -56 -34 -6 -21 -9 -38 -8 -39 61 -23 75 -36 82 -71 6 -36 4
-41 -29 -67 -36 -29 -36 -29 -20 -60 9 -18 18 -33 19 -35 1 -1 21 4 44 13 40
14 44 13 73 -8 28 -20 30 -26 25 -68 -6 -46 -5 -46 30 -57 44 -13 48 -11 63
32 9 30 17 35 51 41 37 6 43 4 72 -29 l32 -36 32 20 31 21 -15 39 c-15 37 -14
40 7 70 21 30 26 32 67 26 40 -5 44 -4 53 20 16 42 12 53 -30 74 -36 18 -40
24 -40 58 0 31 6 43 30 60 35 26 37 41 11 73 -17 22 -21 22 -61 10 -39 -12
-44 -11 -67 11 -20 18 -24 31 -22 67 3 36 0 46 -16 52 -45 17 -62 10 -79 -31z
m34 -165 c43 -22 60 -53 60 -107 0 -133 -172 -173 -233 -54 -26 49 -16 99 28
143 27 27 41 33 74 33 23 0 55 -7 71 -15z"/>
<path d="M2076 2596 c-8 -32 -42 -43 -66 -21 -12 11 -26 14 -39 10 -23 -7 -26
-17 -11 -44 13 -24 -14 -61 -44 -61 -24 0 -41 -24 -30 -41 3 -5 12 -9 20 -9 8
0 20 -11 26 -25 9 -20 8 -28 -5 -43 -20 -22 -21 -34 -5 -50 8 -8 17 -8 31 -1
30 17 67 -7 67 -43 0 -23 4 -28 24 -28 17 0 26 7 30 25 5 19 13 25 35 25 16 0
31 -6 35 -15 7 -18 17 -19 40 -2 15 11 17 17 7 35 -17 32 2 62 39 62 25 0 30
4 30 23 0 16 -9 28 -25 35 -29 14 -33 47 -8 74 15 17 15 20 1 34 -12 13 -20
14 -37 5 -29 -16 -61 5 -61 40 0 24 -15 39 -40 39 -4 0 -11 -11 -14 -24z m53
-122 c28 -35 26 -69 -4 -99 -30 -30 -64 -32 -99 -4 -33 26 -36 79 -6 109 30
30 83 27 109 -6z"/>
</g>
</svg>
