<?xml version="1.0" encoding="UTF-8"?>
<svg xmlns="http://www.w3.org/2000/svg" viewBox="0 0 1060.79 562.74">
  <defs>
    <style>
      .cls-1, .cls-2, .cls-3 {
        font-family: Montserrat-SemiBold, 'Montserrat SemiBold';
      }

      .cls-1, .cls-3 {
        font-size: 9.58px;
      }

      .cls-1, .cls-4 {
        fill: #424243;
      }

      .cls-5 {
        font-family: MrDafoe-Regular, 'MrDafoe Regular';
        font-size: 35.29px;
      }

      .cls-5, .cls-6, .cls-7 {
        fill: #e0942f;
      }

      .cls-8, .cls-2, .cls-3 {
        fill: #fff;
      }

      .cls-9 {
        letter-spacing: .22em;
      }

      .cls-10 {
        fill: #6331dd;
      }

      .cls-11 {
        letter-spacing: 0em;
      }

      .cls-12 {
        letter-spacing: -.01em;
      }

      .cls-2 {
        font-size: 12px;
      }

      .cls-13 {
        letter-spacing: -.03em;
      }

      .cls-6 {
        font-family: DelaGothicOne-Regular, 'DelaGothicOne Regular';
        font-size: 23.76px;
      }

      .cls-14 {
        letter-spacing: -.04em;
      }

      .cls-15 {
        letter-spacing: 0em;
      }

      .cls-16 {
        letter-spacing: .2em;
      }

      .cls-17 {
        letter-spacing: .2em;
      }

      .cls-18 {
        letter-spacing: 0em;
      }

      .cls-19 {
        letter-spacing: 0em;
      }

      .cls-20 {
        letter-spacing: -.04em;
      }

      .cls-21 {
        letter-spacing: 0em;
      }
    </style>
  </defs>
  <g id="BACKGROUND">
    <rect class="cls-8" x="560.79" y="62.74" width="500" height="500"/>
  </g>
  <g id="OBJECTS">
    <g>
      <rect class="cls-8" x="810.79" y="62.74" width="250" height="250"/>
      <g>
        <g>
          <text class="cls-6" transform="translate(911.53 250.04)"><tspan x="0" y="0">C</tspan><tspan class="cls-13" x="14.75" y="0">A</tspan><tspan x="29.63" y="0">TERING</tspan></text>
          <text class="cls-1" transform="translate(913.85 266)"><tspan class="cls-20" x="0" y="0">Y</tspan><tspan x="4.84" y="0">OUR S</tspan><tspan class="cls-14" x="29.56" y="0">L</tspan><tspan class="cls-19" x="33.71" y="0">OGAN</tspan></text>
        </g>
        <g>
          <path class="cls-4" d="M935.79,175.04c16.09-17.81,21-36.44,22.04-41.23,.38-1.57,.61-3,.61-4.21,0-12.51-10.14-22.65-22.66-22.65s-22.65,10.14-22.65,22.65c0,1.2,.23,2.63,.61,4.2,1.04,4.77,5.95,23.41,22.05,41.23Zm0-57.54c6.77,0,12.26,5.49,12.26,12.26s-5.49,12.26-12.26,12.26-12.25-5.49-12.25-12.26,5.49-12.26,12.25-12.26Z"/>
          <path class="cls-4" d="M964.28,135.21c-.89,4.38-6.66,28.58-28.35,50.33-1.28-1.29-2.52-2.59-3.69-3.89-20.74-22.96-24.78-47.17-24.78-47.17,0,0-4.43,16.69,6.03,33.14,6.13,8.53,13.27,15.64,19.34,20.91-2.2,2.03-4.54,4.03-7.05,5.99-3.66-3.07-10.71-2.68-16.98,1.26-7.19,4.52-10.64,11.99-7.69,16.68,1.33,2.11,3.72,3.29,6.61,3.55v.02s.04-.02,.05-.02c3.52,.31,7.77-.76,11.71-3.24,6.43-4.04,9.85-10.42,8.4-15.08,0-.23-.01-.37-.01-.4,1.86-1.3,4.7-3.38,8.06-6.14,3.37,2.76,6.2,4.84,8.06,6.14-.01,.21-.38,6.47,3.42,9.13,3.86,2.7,16.71,9.61,16.71,9.61l.73-1.12-14.16-9.27c-.42-.28-.54-.84-.26-1.27,.28-.42,.84-.54,1.27-.26l14.16,9.28,1.21-1.86-14.16-9.27c-.42-.28-.54-.85-.26-1.27,.28-.42,.84-.54,1.27-.26l14.16,9.27,1.21-1.85-14.16-9.28c-.42-.28-.54-.84-.27-1.26,.28-.42,.84-.54,1.27-.26l14.16,9.27,.73-1.12s-11.46-9.02-15.48-11.49c-3.49-2.14-8.31,0-9.47,.52t0,0c-2.5-1.96-4.84-3.96-7.04-6,5.61-4.88,12.15-11.32,17.94-19.01,.29-.56,.62-1.15,1.05-1.81,9.24-14.47,6.94-29.14,6.24-32.5Z"/>
          <g>
            <path class="cls-7" d="M977.83,150.14c5.54-8.03-1.28-15.44-1.28-15.44-4.78,11.86,1.28,15.44,1.28,15.44Z"/>
            <path class="cls-7" d="M966.88,163.73c-2.98,4.39-3.38,7.88-2.92,10.39,.55,3.01,2.32,4.62,2.46,4.74t0,0s0,0,0,0c0,0,.02,.02,.02,.02,0,0,0,0,0,0,.55,.28,9.14,4.28,15.82-8.01,0,0-9.13,.63-13.6,4.51,.34-1.01,.48-2.05,.5-3.07,.09-4.45-2.29-8.58-2.29-8.58Z"/>
            <path class="cls-7" d="M958.14,174.99c-5.01,6.44-1.69,11.4-1.69,11.4,0,0,.02-.01,.02-.02,0,0,0,.01-.01,.02,0,0,4.98,7.21,17.44-2.22,0,0-9.41-2.42-14.6-.26,2.08-2.8,2.39-6.6,2.3-9.21-.06-1.76-.3-2.98-.3-2.98-1.32,1.12-2.34,2.21-3.16,3.26Z"/>
            <path class="cls-7" d="M976.78,154.89c-.19-5.48-5.7-9.88-5.7-9.88-1.93,10.96,4.78,13.36,5,13.43,0,0,0,.01,0,.02,0,0,2.03,.26,4.46-.96,2.72-1.36,5.95-4.58,7.4-12.07,0,0-3.28,1.37-6.4,3.78-1.94,1.51-3.8,3.43-4.77,5.68Z"/>
            <path class="cls-7" d="M974.3,165.19c.16-5.51-4.73-10.73-4.73-10.73-3.75,10.97,3.22,14.73,3.48,14.86,0,0,0,.02,0,.02,0,0,3.03,.37,6.28-1.82,2.34-1.58,4.8-4.49,6.31-9.88,0,0-2.6,1.07-5.45,2.77-2.17,1.29-4.48,2.95-5.89,4.78Z"/>
            <path class="cls-7" d="M893.75,150.14s6.05-3.58,1.28-15.44c0,0-6.82,7.41-1.28,15.44Z"/>
            <path class="cls-7" d="M904.7,163.73s-2.38,4.13-2.29,8.58c.02,1.02,.16,2.06,.5,3.07-4.47-3.87-13.59-4.51-13.59-4.51,6.67,12.29,15.26,8.28,15.82,8.01,0,0,0,0,0,0,0,0,.02-.02,.02-.02h0s0,0,0,0c.14-.12,1.91-1.74,2.46-4.74,.46-2.52,.05-6-2.92-10.39Z"/>
            <path class="cls-7" d="M910.27,171.73s-.24,1.22-.3,2.98c-.09,2.61,.22,6.41,2.3,9.21-5.19-2.16-14.6,.26-14.6,.26,12.45,9.43,17.44,2.22,17.44,2.22,0,0,0-.01-.01-.02,0,0,.02,.01,.02,.02,0,0,3.32-4.96-1.69-11.4-.82-1.05-1.84-2.14-3.16-3.26Z"/>
            <path class="cls-7" d="M895.49,158.46s0-.01,0-.02c.22-.08,6.93-2.47,5-13.43,0,0-5.51,4.41-5.69,9.88-.97-2.25-2.82-4.17-4.77-5.68-3.11-2.41-6.4-3.78-6.4-3.78,1.46,7.5,4.68,10.71,7.4,12.07,2.43,1.22,4.46,.96,4.46,.96Z"/>
            <path class="cls-7" d="M898.53,169.35s0-.02,0-.02c.25-.13,7.22-3.89,3.48-14.86,0,0-4.89,5.21-4.73,10.73-1.41-1.82-3.72-3.48-5.89-4.78-2.85-1.7-5.45-2.77-5.45-2.77,1.51,5.39,3.97,8.3,6.31,9.88,3.25,2.19,6.28,1.82,6.28,1.82Z"/>
          </g>
        </g>
      </g>
    </g>
    <g>
      <rect class="cls-4" x="560.79" y="62.74" width="250" height="250"/>
      <g>
        <g>
          <text class="cls-5" transform="translate(562.24 240.91)"><tspan class="cls-21" x="0" y="0">C</tspan><tspan class="cls-15" x="20.22" y="0">a</tspan><tspan class="cls-18" x="37.09" y="0">t</tspan><tspan x="48.56" y="0">e</tspan><tspan class="cls-11" x="66.24" y="0">r</tspan><tspan x="77.92" y="0">ing </tspan><tspan class="cls-12" x="132.97" y="0">L</tspan><tspan x="149.13" y="0">ogo</tspan></text>
          <text class="cls-2" transform="translate(649.75 266.28)"><tspan class="cls-16" x="0" y="0" xml:space="preserve">-  SE</tspan><tspan class="cls-9" x="32.59" y="0">R</tspan><tspan class="cls-17" x="41.64" y="0" xml:space="preserve">VICE  -</tspan></text>
        </g>
        <g>
          <path class="cls-8" d="M719.24,140.07c.55,.27,1.22,.03,1.48-.52l5.87-12.28c-.48-.69-.98-1.36-1.49-2.02l-6.38,13.34c-.27,.55-.03,1.22,.52,1.48Z"/>
          <path class="cls-8" d="M735.63,155.88c0-9.7-2.78-18.74-7.57-26.4-1.97,5.03-4.44,11.15-5.87,13.9-2.27,4.41-8.6,5.23-10.15,5.42-7.66,20.14-9.24,38.83-8.5,53.66,18.76-7.16,32.09-25.3,32.09-46.57Zm-24.78,32.07s-7.82-22.98,16.61-35.51c0,0,5.55,27.44-16.61,35.51Z"/>
          <path class="cls-8" d="M673.59,194.51c-9.48-49.48,11.66-76.53,23.26-87.23-3.56-.81-7.26-1.25-11.07-1.25-8.75,0-16.97,2.26-24.11,6.22,17.08,16.48,5.93,34.97,5.93,34.97-14.14-8.96-12.12-24.64-9.99-32.47-8.02,5.5-14.34,13.29-18.04,22.42,4.66-2.72,13.78,1.85,19,10.12,4.86,7.69,.93,16.35,.28,17.65,0,0,0,0-.01,0,7.8,11.71,11.83,27.2,13.87,39.02,2.92,.79,5.95,1.32,9.06,1.57l-.71-11.84-7.48,.81Z"/>
          <path class="cls-8" d="M705.94,135.6c1.88-4.25,8.17-15.12,10.46-19.04-4.67-3.64-9.99-6.48-15.78-8.28-18.82,41.18-12.94,84.71-12.94,84.71l2.36,12.54c1.6-.13,3.17-.35,4.72-.63,.28-25.59,9.69-49.34,13.37-57.66-.15-.22-4.47-6.48-2.19-11.63Z"/>
          <path class="cls-8" d="M714.81,137.95c.55,.26,1.22,.03,1.48-.52l6.92-14.46c-.53-.6-1.07-1.19-1.62-1.76l-7.3,15.26c-.27,.55-.03,1.22,.52,1.48Z"/>
          <path class="cls-8" d="M710.38,135.83c.55,.26,1.21,.03,1.48-.53l7.69-16.09c-.57-.52-1.14-1.03-1.73-1.52l-7.96,16.65c-.27,.55-.03,1.22,.52,1.48Z"/>
          <path class="cls-8" d="M639.95,159.06c-1.88-2.98-3.06-6.24-3.61-9.34-.25,2.02-.39,4.07-.39,6.15,0,20.11,11.91,37.42,29.06,45.3-1.05-16.25-6.03-28.34-9.07-34.33-1.34,.03-11.09-.03-15.99-7.78Zm18.05,27.96c-12.4-1.75-12.54-16.62-12.54-16.62,14.07,3.82,12.54,16.62,12.54,16.62Z"/>
          <path class="cls-8" d="M649.9,175.49c-.9-1.07-1.83-2.12-2.85-3.1,.66,1.25,1.4,2.44,2.17,3.61,.77,1.17,1.59,2.3,2.42,3.43,.85,1.11,1.7,2.22,2.61,3.28,.9,1.07,1.83,2.12,2.85,3.1-.66-1.25-1.4-2.44-2.17-3.61-.77-1.17-1.59-2.3-2.41-3.43-.84-1.11-1.7-2.22-2.61-3.28Z"/>
          <path class="cls-8" d="M661.27,122.21c.4,2.53,.91,5.04,1.45,7.54,.57,2.49,1.17,4.98,1.88,7.44,.7,2.47,1.46,4.92,2.42,7.33-.15-2.59-.49-5.13-.9-7.66-.4-2.53-.91-5.04-1.44-7.54-.57-2.49-1.17-4.98-1.87-7.45-.7-2.47-1.46-4.92-2.42-7.32,.15,2.59,.49,5.13,.9,7.66Z"/>
          <path class="cls-8" d="M717.75,170.61c-1.09,2.4-2.15,4.8-3.11,7.26-.97,2.45-1.87,4.93-2.59,7.5,1.49-2.21,2.8-4.5,4.04-6.83,1.25-2.32,2.4-4.69,3.52-7.07,1.09-2.39,2.15-4.8,3.11-7.26,.97-2.45,1.87-4.93,2.59-7.5-1.49,2.21-2.8,4.5-4.04,6.82-1.25,2.32-2.4,4.69-3.52,7.07Z"/>
        </g>
      </g>
    </g>
    <g>
      <path class="cls-4" d="M29.28,37.87L0,10.48C.12,2.36,7.61,2.04,7.61,2.04l28.44,28.73c-4.39,1.75-6.11,5.14-6.77,7.1Z"/>
      <path class="cls-4" d="M100.87,72.94c-3,6.29-14.46,23.9-45.43,12.79-31.58-12.95-20.87-40.78-20.87-40.78,.2-.5,.46-.97,.76-1.42l-4.4-4.11c.21-1.02,1.42-5.4,6.67-7.08l6.4,6.46c7.59-1.46,18.63,.02,29.98,4.58,2.99,1.2,5.82,2.54,8.45,3.98,.03,.66,.07,1.33,.14,2.01-2.83-1.58-5.93-3.07-9.23-4.4-17.13-6.87-33.28-6.81-36.07,.14-2.79,6.95,8.83,18.16,25.97,25.04,.73,.29,1.46,.57,2.19,.84l4.69,1.87c5.16,2.06,11.31,2.49,15.57,2.49,3.01,0,5.06-.21,5.14-.22,.32-.03,4.57-.42,10.04-2.19Z"/>
      <path class="cls-10" d="M132.58,15.48s-6.06,6.66-18.7,8.77c-16.12,1.59-23.05,13.38-23.05,13.38,0,0-.95-2.29,2.19-6.5,0,0-11.65,2.35-7.86,22.29,.41,2.13,.45,3.94,.19,5.5h0s-.7,8.88-14.5,12.08c4.87,1.94,10.76,2.35,14.83,2.35,2.94,0,4.93-.21,4.93-.21,0,0,15.57-1.31,25.54-11.51,7.93-8.1,7.96-15.72,7.65-18.5-.02,0-2.38,4.92-7.81,7.06l-.02-.02s-.67,.2-1.4,.2c-1.28,0-2.76-.62-1.21-4.01,0,0,0,0,0,0,1.85-2.31,4.75-4.83,9.3-6.75,11.12-4.7,9.89-24.12,9.89-24.12Zm-15.41,38.41s-7.24,15.72-29.75,13.58c0,0,4.63-6.03,2.81-15.77-1.22-8.35,5.66-17.23,19.96-18.42,0,0-10.2,5.83-9.2,16.62,1,10.79,16.18,3.99,16.18,3.99Z"/>
      <path class="cls-10" d="M129.34,7.88c.26-6.74,3.14-7.88,3.14-7.88,0,0-6.87,.81-7.15,5.81-.28,4.99,.6,6.03-1.79,9.44,0,0,5.53-.62,5.79-7.36Z"/>
      <path class="cls-10" d="M98.6,22.91c2.47-2.3,.64-5.2,.64-5.2,0,0,.53,1.67-1.87,3.52s-1.04,4.55-1.04,4.55c0,0-.21-.56,2.27-2.86Z"/>
    </g>
    <g>
      <rect class="cls-4" x="810.79" y="312.74" width="250" height="250"/>
      <g>
        <g>
          <text class="cls-6" transform="translate(911.53 494.06)"><tspan x="0" y="0">C</tspan><tspan class="cls-13" x="14.75" y="0">A</tspan><tspan x="29.63" y="0">TERING</tspan></text>
          <text class="cls-3" transform="translate(913.85 510.02)"><tspan class="cls-20" x="0" y="0">Y</tspan><tspan x="4.84" y="0">OUR S</tspan><tspan class="cls-14" x="29.56" y="0">L</tspan><tspan class="cls-19" x="33.71" y="0">OGAN</tspan></text>
        </g>
        <g>
          <path class="cls-8" d="M918.67,426.33h0s.05,0,.14,.01c.17,.02,.35,.04,.52,.06,2.12,.22,8.97,.62,13.21-2.94,2.87-2.49,7.21-7.19,13.39-16.1,6.11-8.81,13.63-14.51,19.9-18.08l-14.84-1.41h0l-3.81-.36-20.65-1.96-2.94-.28h0l-20.13-1.91-7.74-.73-.3,3.14s7.57,2.5,7.01,8.41v.06s-9.29-.88-9.29-.88c-3.64-.35-5.76,1.94-5.99,4.36-.24,2.49,1.27,5.08,4.14,7.09,2.42,1.7,5.89,2.78,9.81,3.42l-.3,3.17c.36-.01,.73-.01,1.13,.03,7.18,.72,6.82,12.62,6.82,12.62,0,0-2.92-5.16-8.66-5.16l-.95,10.04c2.87-1.79,8.5-2.96,14.96-2.87,1.59,.02,3.12,.12,4.57,.28Zm-17.09-23.07c-5.82-1.05-8.24-3.17-8.82-3.89-.44-.55-.56-.95-.69-.98,.1-.02,.3-.05,.61-.02l9.28,.88-.38,4.01Zm20.79-3.14c7.72-6.03,13.84,5.9,4.88,8.79-8.96,2.89-11.54,5.16-13.66,8.79,0,0,1.06-11.54,8.78-17.57Z"/>
          <path class="cls-8" d="M979.36,401.54l-9.28-.88v-.06c.57-5.91,8.48-6.94,8.48-6.94l.27-2.83c-18.43,4.44-32.76,22.89-38.23,31.62,0,0-3.27,5.56-5.23,10.22-1.85,4.41-8.25,13.21-21.9,12.73-.66-.01-1.32-.04-2.01-.11-.07,0-.13-.02-.19-.02-.03,0-.05,0-.07,0h0c-7.74-.86-11.3-4.17-12.91-7.39l-.19,2.05c-.57,5.95,3.8,11.24,9.75,11.8l9.35,.89h0l6.37,.61,21.03,2h0l9.35,.89c5.95,.57,11.24-3.8,11.8-9.75l3.01-31.68c3.98,.1,7.58-.3,10.28-1.52,3.19-1.44,5.16-3.69,5.4-6.19,.23-2.42-1.43-5.06-5.07-5.41Zm-.75,5.98c-.7,.6-3.47,2.23-9.39,2.16l.38-4.01,9.28,.88c.3,.03,.5,.1,.59,.14-.13,0-.32,.37-.86,.83Z"/>
          <path class="cls-8" d="M976.16,372.34s-16.3-10.25-39.86-9.87l-.15-3.23-5.34,.25,.15,3.24c-11.74,.99-24.98,4.75-38.75,13.59l83.94-3.98Z"/>
          <path class="cls-7" d="M899.24,432.5c-.04,2.75,6.41,5.06,14.41,5.17s14.5-2.03,14.54-4.78c.04-2.75-6.41-5.06-14.41-5.17-7.99-.11-14.5,2.03-14.54,4.78Z"/>
        </g>
      </g>
    </g>
  </g>
</svg>