<?xml version="1.0" encoding="UTF-8"?>
<svg id="Layer_1" data-name="Layer 1" xmlns="http://www.w3.org/2000/svg" xmlns:xlink="http://www.w3.org/1999/xlink" viewBox="0 0 437.32 366.21">
  <defs>
    <style>
      .cls-1, .cls-2 {
        fill: #27374d;
      }

      .cls-1, .cls-3 {
        fill-rule: evenodd;
      }

      .cls-3 {
        fill: #dedbd9;
      }

      .cls-4 {
        fill: none;
      }

      .cls-5 {
        fill: url(#linear-gradient);
      }
    </style>
    <linearGradient id="linear-gradient" x1="261.28" y1="179.68" x2="185.87" y2="93.06" gradientUnits="userSpaceOnUse">
      <stop offset="0" stop-color="#e7b10a"/>
      <stop offset=".02" stop-color="#ddaa0a"/>
      <stop offset=".12" stop-color="#b6910d"/>
      <stop offset=".22" stop-color="#957b10"/>
      <stop offset=".33" stop-color="#7a6912"/>
      <stop offset=".45" stop-color="#655c13"/>
      <stop offset=".59" stop-color="#575215"/>
      <stop offset=".75" stop-color="#4e4c15"/>
      <stop offset="1" stop-color="#4c4b16"/>
    </linearGradient>
  </defs>
  <path class="cls-2" d="M297.96,61.96c7.72,5.69,17.01,13.95,25.43,25.54,20.22,27.85,22.61,57.35,22.82,70.54-2.17,6.18-4.35,12.37-6.52,18.55,0,0-1.3,13.33,3.62,17.1,4.93,3.77,20.14,36.95,20.14,36.95,0,0,2.03,9.37-14.49,11.64,0,0-6.09,4.44-1.3,17.49,0,0,2.46,8.4-5.51,9.71-7.97,1.3-.72,6.23-.72,6.23,0,0,2.61,8.98-2.32,9.71l-3.19,5.22s-2.61,10.58,.72,16.52c3.33,5.94-1.59,18.98-12.03,19.85-10.43,.87-49.85,.87-49.85,.87,0,0-18.55,6.38-15.51,26.37,0,0,5.94,16.23-12.17,10.87-18.11-5.36-86.95-28.4-111.29-49.27l-16.52-.87c7.97-7.95,15.2-13.62,20.43-17.39,7.14-5.14,16.88-10.45,36.08-20.87,13.62-7.39,18.44-9.72,20.87-10.87,11.48-5.45,20.11-8.69,23.48-10,18.81-7.32,39.65-19.12,50-26.52,36.85-26.35,46.5-72.44,46.95-74.78,9.3-47.64-13.82-84.55-19.13-92.6Z"/>
  <path class="cls-5" d="M296.42,174.53c-13.49-26.56-26.97-53.12-40.46-79.68-1.85-2.23-4.47-2.98-5.87-2.17-1.66,.96-2.38,4.6,.04,7.75,7.63,15.25,11.74,23.48,11.74,23.48,0,0,1.25,5.68-.33,6.74-1.28,.86-4.23-1.44-4.89-1.96-7.35-5.74-16.1-29.38-19.7-39.67-1.33-1.97-3.61-2.79-5.27-2.17-2.15,.81-3.47,4.15-1.76,7.06,4.29,8.74,8.57,17.49,12.86,26.23,2.08,2.76,1.09,6.45-1.23,7.65-1.96,1.02-4.89,.25-6.41-2.15l-21.08-44.13s-7.39-4.13-7.39,5.43c4.62,8.86,9.25,17.73,13.87,26.59,1.68,2.77,.98,6.35-1.5,8.19-2.29,1.7-5.59,1.55-7.8-.44l-12.61-21.95s-6.52-2.83-6.52,5l15.87,31.95s1.74,12.39-10.22,8.04l-8.48-15.22s-6.74-2.83-6.96,5.43l12.39,24.35s.22,6.52-4.56-.22c-4.78-6.74-2.39-5.65-2.39-5.65,0,0-8.69-.65-5.43,5.65,3.26,6.3,9.56,20,9.56,20,2.7-1.25,5.41-2.5,8.11-3.75,6.96-13.09,13.91-26.18,20.87-39.27,2.63-1.53,5.27-3.07,7.9-4.6,13.24,2.21,26.49,4.41,39.73,6.62-2.05,9.36-4.1,18.72-6.15,28.08,3.85-6.36,7.71-12.72,11.56-19.08,3.86,7.67,7.73,15.34,11.59,23.01,3.65,1.62,7.29,3.24,10.94,4.85Z"/>
  <g>
    <polygon class="cls-4" points="254.75 164.93 267.8 138.41 229.54 131.45 242.15 161.89 254.75 164.93"/>
    <polygon class="cls-4" points="220.84 136.67 199.98 174.93 215.19 202.32 234.75 164.93 220.84 136.67"/>
    <polygon class="cls-4" points="241.71 169.49 221.28 210.14 241.71 215.36 248.67 202.32 255.62 202.32 248.67 215.36 264.9 219.71 285.91 180 241.71 169.49"/>
    <path class="cls-4" d="M284.75,169.13l-10.94-21.3-10.72,17.46,21.66,3.84Zm-5-3.12l-11.67-2.75,5.29-8.98,6.38,11.74Z"/>
  </g>
  <path class="cls-2" d="M294.87,173.63c-3.15-1.36-6.3-2.72-9.46-4.07-7.7-1.27-15.4-2.54-23.1-3.8,1.73-2.85,3.45-5.7,5.18-8.55,2.13-3.51,4.25-7.02,6.38-10.53-1.8-3-3.6-6-5.41-8.99-4.65,9.14-9.29,18.29-13.94,27.43-4.2-.97-8.41-1.93-12.61-2.9-4.4-10.39-8.79-20.77-13.19-31.16-2.63,1.53-5.27,3.07-7.9,4.6,4.73,9.73,9.47,19.45,14.2,29.18-6.69,12.66-13.38,25.32-20.07,37.99-5-9.3-10-18.6-14.99-27.9-2.7,1.25-5.41,2.51-8.11,3.76,6.47,12.25,12.94,24.5,19.41,36.75,19.25,4.29,38.5,8.57,57.75,12.86,9.06-17.95,18.11-35.91,27.17-53.86-.44-.27-.88-.53-1.32-.8Zm-30.18,48.52c-5.76-1.61-11.52-3.22-17.28-4.84,2.49-4.9,4.98-9.81,7.47-14.71-1.84-.55-3.67-1.1-5.51-1.65-2.57,4.91-5.14,9.82-7.72,14.73-7.01-1.81-14.02-3.62-21.03-5.43,6.98-13.69,13.96-27.39,20.94-41.08,14.91,3.51,29.83,7.03,44.74,10.54-7.2,14.15-14.41,28.29-21.61,42.44Z"/>
  <polygon class="cls-2" points="273.14 154.74 269.17 163.49 278.99 165.83 273.14 154.74"/>
  <g>
    <path class="cls-2" d="M288.06,.03s-74.2-3.48-96.8,69.56c0,0,27.24-36.52,60.94-35.21l8.48,61.52,12.9,30.5,28.98-2.32L288.06,.03Zm-11.52,107.82l-11.96-89.34h6.74l12.17,87.6-6.96,1.74Z"/>
    <path class="cls-2" d="M140.9,146.75l.87-1.96s30.43,7.72,44.13,31.84c0,0-6.23-45.61-87.09-48.51l10.14-79.12s41.45-5.8,73.33,23.19l-17.03-19.35s15.22,6.96,20.22,12.39c0,0-30.14-53.91-112.74-44.34l-19.64,134.99s100.64-19.56,134.55,39.78c0,0-13.91-35.65-46.73-48.91Zm-51.52-70.97h-3.26l5.43-40.1h3.37l-5.54,40.1Z"/>
  </g>
  <g>
    <path class="cls-1" d="M98.31,221.9c2.03,.2,4.06,.4,6.09,.6l5.43-7.1c.26-.47,.99-.68,1.46-.42l7.41,3.77c.47,.26,.68,.99,.53,1.82l-3.45,8.5c1.62,1.5,2.77,2.75,3.77,4.82l9.05-1.45c.73-.21,1.2,.05,1.41,.77l2.33,8.01c.21,.73-.05,1.2-.77,1.41l-8.42,3.63c.27,2.29,.07,4.32-.6,6.09l7.47,5.33c.58,.62,.79,1.35,.53,1.82l-4.24,7.15c-.26,.47-.99,.68-1.46,.42l-8.4-3.09c-1.61,1.26-3.22,2.51-4.82,3.77l1.45,9.05c.11,.36-.41,1.3-.77,1.41l-8.01,2.33c-.73,.21-1.3-.41-1.41-.77l-3.99-8.31c-2.03-.2-4.06-.4-5.73-.7l-5.8,7.21c-.26,.47-.99,.68-1.46,.42l-7.04-3.87c-.83-.15-1.04-.88-.89-1.71l3.45-8.5c-1.51-1.14-2.77-2.75-3.77-4.82l-9.05,1.45c-.73,.21-1.2-.05-1.41-.77l-2.33-8.01c-.21-.73,.05-1.2,.77-1.41l8.42-3.63c-.27-2.29,.03-3.96,.6-6.09l-7.47-5.33c-.58-.62-.79-1.35-.16-1.93l3.87-7.04c.26-.47,.99-.68,1.46-.42l8.76,2.98c1.24-1.15,2.85-2.41,4.46-3.66l-1.08-9.16c-.11-.36,.05-1.2,.77-1.41l8.01-2.33c.36-.11,1.3,.41,1.41,.77l3.63,8.42Zm-3.76,10.17c8.01-2.33,16.46,2.32,18.79,10.33,2.33,8.01-2.32,16.46-10.33,18.79-8.37,2.43-16.83-2.22-19.15-10.22-2.33-8.01,2.32-16.46,10.69-18.89Z"/>
    <path class="cls-1" d="M145.17,176.72c1.93-.16,3.59,.14,5.37,.81l4.71-6.89c.62-.58,1.09-.32,1.56-.06l6.47,3.25c.58,.62,.68,.99,.42,1.46l-2.83,7.93c1.51,1.14,2.3,2.49,3.56,4.1l7.96-1.13c.73-.21,1.2,.05,1.41,.77l2.01,6.92c.21,.73-.05,1.2-.77,1.41l-7.33,3.31c-.2,2.03-.14,3.59-.81,5.37l6.63,5.18c.47,.26,.58,.62,.32,1.09l-3.62,6.58c-.26,.47-.62,.58-1.35,.79l-7.67-3.3c-1.14,1.51-2.49,2.3-4.1,3.56l1.13,7.96c.21,.73-.05,1.2-.77,1.41l-6.92,2.01c-.73,.21-1.2-.05-1.41-.77l-3.31-7.33c-1.93,.16-3.59-.14-5.37-.81l-5.07,7c-.36,.11-1.09,.32-1.56,.06l-6.21-3.72c-.83-.15-.94-.52-.68-.99l3.19-8.03c-1.51-1.14-2.67-2.38-3.56-4.1l-8.32,1.23c-.36,.11-.83-.15-1.04-.88l-2.01-6.92c-.21-.73,.05-1.2,.41-1.3l7.69-3.42c-.16-1.93,.14-3.59,.81-5.37l-7-5.07c-.47-.26-.58-.62-.06-1.56l3.36-6.11c.26-.47,.88-1.04,1.35-.79l8.03,3.19c1.14-1.51,2.38-2.67,4.1-3.56l-1.13-7.96c-.21-.73,.05-1.2,.77-1.41l6.92-2.01c.73-.21,1.2,.05,1.41,.77l3.31,7.33Zm-3.71,8.97c7.28-2.11,15.16,1.91,17.27,9.19,2.22,7.64-2.28,15.26-9.55,17.38-7.28,2.11-14.79-2.02-17.01-9.66-2.11-7.28,2.02-14.79,9.3-16.91h0Z"/>
    <path class="cls-1" d="M161.59,238.65c1.56-.06,2.76-.01,4.06,.4l3.67-5.01c.26-.47,.73-.21,1.09-.32l5.17,2.84c.11,.36,.58,.62,.32,1.09l-2.27,5.79c1.04,.88,1.73,1.87,2.51,3.22l6.03-.96c.36-.11,.83,.15,.94,.52l1.59,5.46c.11,.36-.15,.83-.52,.94l-5.61,2.42c.06,1.56,.01,2.76-.4,4.06l5.12,4.04c.36-.11,.21,.73,.32,1.09l-2.95,4.8c-.26,.47-.62,.58-1.09,.32l-5.79-2.27c-.88,1.04-1.87,1.73-3.22,2.51l1.07,6.4c.11,.36-.15,.83-.52,.94l-5.46,1.59c-.36,.11-.83-.15-.94-.52l-2.53-5.98c-1.56,.06-2.76,.01-4.06-.4l-4.04,5.12c.11,.36-.62,.58-1.09,.32l-4.7-2.58c-.47-.26-.68-.99-.32-1.09l2.16-6.15c-1.04-.88-1.73-1.87-2.51-3.22l-6.4,1.07c-.36,.11-.83-.15-.94-.52l-1.59-5.46c-.11-.36,.15-.83,.52-.94l5.98-2.53c-.06-1.56-.01-2.76,.4-4.06l-5.01-3.67c-.47-.26-.58-.62-.32-1.09l2.48-5.06c.36-.11,.99-.68,1.09-.32l6.15,2.16c.88-1.04,1.87-1.73,3.22-2.51l-.96-6.03c-.11-.36,.15-.83,.52-.94l5.46-1.59c.36-.11,.83,.15,.94,.52l2.42,5.61Zm-2.78,6.73c5.82-1.69,11.46,1.41,13.15,7.23,1.59,5.46-1.51,11.1-7.34,12.79-5.46,1.59-11.1-1.51-12.68-6.97-1.69-5.82,1.41-11.46,6.87-13.05h0Z"/>
  </g>
  <path class="cls-3" d="M360.58,213.79S527.52,20.77,292.18,34.68v-4.06S562.58-.68,365.21,223.65l-4.64-9.85Z"/>
  <path class="cls-3" d="M56.75,154.92c-13.92,12.17-32.43,32.19-44.34,61.52-7.48,18.4-19.34,47.61-7.17,72.38,2.58,5.26,9.06,16.04,20.65,25.43,3.43,2.78,8.96,6.78,17.82,10.87,24,11.08,47.42,11.59,61.08,11.74,13.54,.15,32.86-.99,55.52-6.96-2.48-.86-4.95-1.72-7.43-2.59-9.86,2.31-24.07,4.85-41.35,5.2-14.72,.3-25.97,.54-40.21-3.91-7.47-2.33-25.16-8.11-39.56-24.78-3.37-3.9-8.14-9.52-11.56-18.12-7.13-17.94-2.76-34.77,1.34-49.7,5.23-19.04,13.29-32.03,20.65-43.69,6.98-11.05,17.12-24.97,31.52-39.34-5.65,.65-11.3,1.3-16.95,1.96Z"/>
</svg>